<svg id="Layer_1" data-name="Layer 1" xmlns="http://www.w3.org/2000/svg" viewBox="0 0 704 621"><defs><style>.cls-1{opacity:0.2;}.cls-2{fill:none;stroke:#fff;stroke-linecap:round;stroke-miterlimit:10;stroke-width:0.75px;}</style></defs><title>Sitio_Edinson</title><g class="cls-1"><path class="cls-2" d="M135.5,9l58.88,50a18.83,18.83,0,0,0,23.56,0l52.29-44.37a18.83,18.83,0,0,1,23.56,0L343,56.31a18.83,18.83,0,0,0,23.56,0l48.14-40.84a18.83,18.83,0,0,1,23.56,0l48.13,40.84a18.84,18.84,0,0,0,23.57,0l48.13-40.84a18.83,18.83,0,0,1,23.56,0l48.13,40.84a18.84,18.84,0,0,0,23.57,0l50.56-42.9"/><path class="cls-2" d="M135.5,18l58.88,50a18.83,18.83,0,0,0,23.56,0l52.29-44.37a18.83,18.83,0,0,1,23.56,0L343,65.31a18.83,18.83,0,0,0,23.56,0l48.14-40.85a18.83,18.83,0,0,1,23.56,0l48.13,40.85a18.84,18.84,0,0,0,23.57,0l48.13-40.85a18.83,18.83,0,0,1,23.56,0l48.13,40.85a18.84,18.84,0,0,0,23.57,0L703.87,22.4"/><path class="cls-2" d="M135.5,27l58.88,50a18.83,18.83,0,0,0,23.56,0l52.29-44.37a18.83,18.83,0,0,1,23.56,0L343,74.3a18.83,18.83,0,0,0,23.56,0l48.14-40.84a18.8,18.8,0,0,1,23.56,0L486.35,74.3a18.84,18.84,0,0,0,23.57,0l48.13-40.84a18.8,18.8,0,0,1,23.56,0L629.74,74.3a18.84,18.84,0,0,0,23.57,0l50.56-42.91"/><path class="cls-2" d="M135.5,36l58.88,50a18.83,18.83,0,0,0,23.56,0l52.29-44.37a18.83,18.83,0,0,1,23.56,0L343,83.29a18.83,18.83,0,0,0,23.56,0l48.14-40.84a18.83,18.83,0,0,1,23.56,0l48.13,40.84a18.84,18.84,0,0,0,23.57,0l48.13-40.84a18.83,18.83,0,0,1,23.56,0l48.13,40.84a18.84,18.84,0,0,0,23.57,0l50.56-42.9"/><path class="cls-2" d="M135.5,45l58.88,50a18.83,18.83,0,0,0,23.56,0l52.29-44.37a18.83,18.83,0,0,1,23.56,0L343,92.28a18.8,18.8,0,0,0,23.56,0l48.14-40.84a18.83,18.83,0,0,1,23.56,0l48.13,40.84a18.82,18.82,0,0,0,23.57,0l48.13-40.84a18.83,18.83,0,0,1,23.56,0l48.13,40.84a18.82,18.82,0,0,0,23.57,0l50.56-42.9"/><path class="cls-2" d="M135.5,54l58.88,50a18.83,18.83,0,0,0,23.56,0l52.29-44.37a18.83,18.83,0,0,1,23.56,0L343,101.28a18.83,18.83,0,0,0,23.56,0l48.14-40.85a18.83,18.83,0,0,1,23.56,0l48.13,40.85a18.84,18.84,0,0,0,23.57,0l48.13-40.85a18.83,18.83,0,0,1,23.56,0l48.13,40.85a18.84,18.84,0,0,0,23.57,0l50.56-42.91"/><path class="cls-2" d="M135.5,63l58.88,50a18.83,18.83,0,0,0,23.56,0l52.29-44.37a18.83,18.83,0,0,1,23.56,0L343,110.27a18.83,18.83,0,0,0,23.56,0l48.14-40.84a18.83,18.83,0,0,1,23.56,0l48.13,40.84a18.84,18.84,0,0,0,23.57,0l48.13-40.84a18.83,18.83,0,0,1,23.56,0l48.13,40.84a18.84,18.84,0,0,0,23.57,0l50.56-42.9"/><path class="cls-2" d="M135.5,72l58.88,50a18.83,18.83,0,0,0,23.56,0l52.29-44.37a18.83,18.83,0,0,1,23.56,0L343,119.26a18.83,18.83,0,0,0,23.56,0l48.14-40.84a18.83,18.83,0,0,1,23.56,0l48.13,40.84a18.84,18.84,0,0,0,23.57,0l48.13-40.84a18.83,18.83,0,0,1,23.56,0l48.13,40.84a18.84,18.84,0,0,0,23.57,0l50.56-42.9"/><path class="cls-2" d="M135.5,80.94l58.88,50a18.83,18.83,0,0,0,23.56,0l52.29-44.37a18.83,18.83,0,0,1,23.56,0L343,128.26a18.83,18.83,0,0,0,23.56,0l48.14-40.85a18.83,18.83,0,0,1,23.56,0l48.13,40.85a18.84,18.84,0,0,0,23.57,0l48.13-40.85a18.83,18.83,0,0,1,23.56,0l48.13,40.85a18.84,18.84,0,0,0,23.57,0l50.56-42.91"/><path class="cls-2" d="M135.5,89.94l58.88,49.95a18.8,18.8,0,0,0,23.56,0l52.29-44.36a18.8,18.8,0,0,1,23.56,0L343,137.25a18.83,18.83,0,0,0,23.56,0l48.14-40.84a18.83,18.83,0,0,1,23.56,0l48.13,40.84a18.84,18.84,0,0,0,23.57,0l48.13-40.84a18.83,18.83,0,0,1,23.56,0l48.13,40.84a18.84,18.84,0,0,0,23.57,0l50.56-42.9"/><path class="cls-2" d="M135.5,98.93l58.88,50a18.83,18.83,0,0,0,23.56,0l52.29-44.37a18.83,18.83,0,0,1,23.56,0L343,146.24a18.83,18.83,0,0,0,23.56,0l48.14-40.84a18.83,18.83,0,0,1,23.56,0l48.13,40.84a18.84,18.84,0,0,0,23.57,0l48.13-40.84a18.83,18.83,0,0,1,23.56,0l48.13,40.84a18.84,18.84,0,0,0,23.57,0l50.56-42.9"/><path class="cls-2" d="M135.5,107.92l58.88,50a18.83,18.83,0,0,0,23.56,0l52.29-44.37a18.83,18.83,0,0,1,23.56,0L343,155.24a18.83,18.83,0,0,0,23.56,0l48.14-40.85a18.83,18.83,0,0,1,23.56,0l48.13,40.85a18.84,18.84,0,0,0,23.57,0l48.13-40.85a18.83,18.83,0,0,1,23.56,0l48.13,40.85a18.84,18.84,0,0,0,23.57,0l50.56-42.91"/><path class="cls-2" d="M135.5,116.92l58.88,50a18.83,18.83,0,0,0,23.56,0l52.29-44.37a18.83,18.83,0,0,1,23.56,0L343,164.23a18.83,18.83,0,0,0,23.56,0l48.14-40.84a18.83,18.83,0,0,1,23.56,0l48.13,40.84a18.84,18.84,0,0,0,23.57,0l48.13-40.84a18.83,18.83,0,0,1,23.56,0l48.13,40.84a18.84,18.84,0,0,0,23.57,0l50.56-42.91"/><path class="cls-2" d="M135.5,125.91l58.88,50a18.83,18.83,0,0,0,23.56,0l52.29-44.37a18.83,18.83,0,0,1,23.56,0L343,173.22a18.83,18.83,0,0,0,23.56,0l48.14-40.84a18.83,18.83,0,0,1,23.56,0l48.13,40.84a18.84,18.84,0,0,0,23.57,0l48.13-40.84a18.83,18.83,0,0,1,23.56,0l48.13,40.84a18.84,18.84,0,0,0,23.57,0l50.56-42.9"/><path class="cls-2" d="M135.5,134.9l58.88,50a18.83,18.83,0,0,0,23.56,0l52.29-44.37a18.83,18.83,0,0,1,23.56,0L343,182.21a18.8,18.8,0,0,0,23.56,0l48.14-40.84a18.83,18.83,0,0,1,23.56,0l48.13,40.84a18.82,18.82,0,0,0,23.57,0l48.13-40.84a18.83,18.83,0,0,1,23.56,0l48.13,40.84a18.82,18.82,0,0,0,23.57,0l50.56-42.9"/><path class="cls-2" d="M135.5,143.9l58.88,49.95a18.83,18.83,0,0,0,23.56,0l52.29-44.37a18.83,18.83,0,0,1,23.56,0L343,191.21a18.83,18.83,0,0,0,23.56,0l48.14-40.84a18.8,18.8,0,0,1,23.56,0l48.13,40.84a18.84,18.84,0,0,0,23.57,0l48.13-40.84a18.8,18.8,0,0,1,23.56,0l48.13,40.84a18.84,18.84,0,0,0,23.57,0l50.56-42.91"/><path class="cls-2" d="M135.5,152.89l58.88,50a18.83,18.83,0,0,0,23.56,0l52.29-44.37a18.83,18.83,0,0,1,23.56,0L343,200.2a18.83,18.83,0,0,0,23.56,0l48.14-40.84a18.83,18.83,0,0,1,23.56,0l48.13,40.84a18.84,18.84,0,0,0,23.57,0l48.13-40.84a18.83,18.83,0,0,1,23.56,0l48.13,40.84a18.84,18.84,0,0,0,23.57,0l50.56-42.9"/><path class="cls-2" d="M135.5,161.88l58.88,50a18.83,18.83,0,0,0,23.56,0l52.29-44.37a18.83,18.83,0,0,1,23.56,0L343,209.19a18.83,18.83,0,0,0,23.56,0l48.14-40.84a18.83,18.83,0,0,1,23.56,0l48.13,40.84a18.84,18.84,0,0,0,23.57,0l48.13-40.84a18.83,18.83,0,0,1,23.56,0l48.13,40.84a18.84,18.84,0,0,0,23.57,0l50.56-42.9"/><path class="cls-2" d="M135.5,170.87l58.88,50a18.83,18.83,0,0,0,23.56,0l52.29-44.37a18.83,18.83,0,0,1,23.56,0L343,218.19a18.83,18.83,0,0,0,23.56,0l48.14-40.85a18.83,18.83,0,0,1,23.56,0l48.13,40.85a18.84,18.84,0,0,0,23.57,0l48.13-40.85a18.83,18.83,0,0,1,23.56,0l48.13,40.85a18.84,18.84,0,0,0,23.57,0l50.56-42.91"/><path class="cls-2" d="M135.5,179.87l58.88,49.95a18.8,18.8,0,0,0,23.56,0l52.29-44.36a18.8,18.8,0,0,1,23.56,0L343,227.18a18.83,18.83,0,0,0,23.56,0l48.14-40.84a18.83,18.83,0,0,1,23.56,0l48.13,40.84a18.84,18.84,0,0,0,23.57,0l48.13-40.84a18.83,18.83,0,0,1,23.56,0l48.13,40.84a18.84,18.84,0,0,0,23.57,0l50.56-42.9"/><path class="cls-2" d="M135.5,188.86l58.88,50a18.83,18.83,0,0,0,23.56,0l52.29-44.37a18.83,18.83,0,0,1,23.56,0L343,236.17a18.83,18.83,0,0,0,23.56,0l48.14-40.84a18.83,18.83,0,0,1,23.56,0l48.13,40.84a18.84,18.84,0,0,0,23.57,0l48.13-40.84a18.83,18.83,0,0,1,23.56,0l48.13,40.84a18.84,18.84,0,0,0,23.57,0l50.56-42.9"/><path class="cls-2" d="M135.5,197.85l58.88,50a18.83,18.83,0,0,0,23.56,0l52.29-44.37a18.83,18.83,0,0,1,23.56,0L343,245.17a18.83,18.83,0,0,0,23.56,0l48.14-40.85a18.83,18.83,0,0,1,23.56,0l48.13,40.85a18.84,18.84,0,0,0,23.57,0l48.13-40.85a18.83,18.83,0,0,1,23.56,0l48.13,40.85a18.84,18.84,0,0,0,23.57,0l50.56-42.91"/><path class="cls-2" d="M135.5,206.85l58.88,50a18.83,18.83,0,0,0,23.56,0l52.29-44.37a18.83,18.83,0,0,1,23.56,0L343,254.16a18.83,18.83,0,0,0,23.56,0l48.14-40.84a18.83,18.83,0,0,1,23.56,0l48.13,40.84a18.84,18.84,0,0,0,23.57,0l48.13-40.84a18.83,18.83,0,0,1,23.56,0l48.13,40.84a18.84,18.84,0,0,0,23.57,0l50.56-42.91"/><path class="cls-2" d="M135.5,215.84l58.88,50a18.83,18.83,0,0,0,23.56,0l52.29-44.37a18.83,18.83,0,0,1,23.56,0L343,263.15a18.83,18.83,0,0,0,23.56,0l48.14-40.84a18.83,18.83,0,0,1,23.56,0l48.13,40.84a18.84,18.84,0,0,0,23.57,0l48.13-40.84a18.83,18.83,0,0,1,23.56,0l48.13,40.84a18.84,18.84,0,0,0,23.57,0l50.56-42.9"/><path class="cls-2" d="M135.5,224.83l58.88,50a18.83,18.83,0,0,0,23.56,0l52.29-44.37a18.83,18.83,0,0,1,23.56,0L343,272.14a18.8,18.8,0,0,0,23.56,0l48.14-40.84a18.83,18.83,0,0,1,23.56,0l48.13,40.84a18.82,18.82,0,0,0,23.57,0l48.13-40.84a18.83,18.83,0,0,1,23.56,0l48.13,40.84a18.82,18.82,0,0,0,23.57,0l50.56-42.9"/><path class="cls-2" d="M135.5,233.83l58.88,49.95a18.83,18.83,0,0,0,23.56,0l52.29-44.37a18.83,18.83,0,0,1,23.56,0L343,281.14a18.83,18.83,0,0,0,23.56,0l48.14-40.84a18.8,18.8,0,0,1,23.56,0l48.13,40.84a18.84,18.84,0,0,0,23.57,0l48.13-40.84a18.8,18.8,0,0,1,23.56,0l48.13,40.84a18.84,18.84,0,0,0,23.57,0l50.56-42.91"/><path class="cls-2" d="M135.5,242.82l58.88,50a18.83,18.83,0,0,0,23.56,0l52.29-44.37a18.83,18.83,0,0,1,23.56,0L343,290.13a18.83,18.83,0,0,0,23.56,0l48.14-40.84a18.83,18.83,0,0,1,23.56,0l48.13,40.84a18.84,18.84,0,0,0,23.57,0l48.13-40.84a18.83,18.83,0,0,1,23.56,0l48.13,40.84a18.84,18.84,0,0,0,23.57,0l50.56-42.9"/><path class="cls-2" d="M135.5,251.81l58.88,50a18.83,18.83,0,0,0,23.56,0l52.29-44.37a18.83,18.83,0,0,1,23.56,0L343,299.12a18.83,18.83,0,0,0,23.56,0l48.14-40.84a18.83,18.83,0,0,1,23.56,0l48.13,40.84a18.84,18.84,0,0,0,23.57,0l48.13-40.84a18.83,18.83,0,0,1,23.56,0l48.13,40.84a18.84,18.84,0,0,0,23.57,0l50.56-42.9"/><path class="cls-2" d="M135.5,260.8l58.88,50a18.83,18.83,0,0,0,23.56,0l52.29-44.37a18.83,18.83,0,0,1,23.56,0L343,308.12a18.83,18.83,0,0,0,23.56,0l48.14-40.85a18.83,18.83,0,0,1,23.56,0l48.13,40.85a18.84,18.84,0,0,0,23.57,0l48.13-40.85a18.83,18.83,0,0,1,23.56,0l48.13,40.85a18.84,18.84,0,0,0,23.57,0l50.56-42.91"/><path class="cls-2" d="M135.5,269.8l58.88,49.95a18.8,18.8,0,0,0,23.56,0l52.29-44.36a18.8,18.8,0,0,1,23.56,0L343,317.11a18.83,18.83,0,0,0,23.56,0l48.14-40.84a18.83,18.83,0,0,1,23.56,0l48.13,40.84a18.84,18.84,0,0,0,23.57,0l48.13-40.84a18.83,18.83,0,0,1,23.56,0l48.13,40.84a18.84,18.84,0,0,0,23.57,0l50.56-42.9"/><path class="cls-2" d="M135.5,278.79l58.88,50a18.83,18.83,0,0,0,23.56,0l52.29-44.37a18.83,18.83,0,0,1,23.56,0L343,326.1a18.83,18.83,0,0,0,23.56,0l48.14-40.84a18.83,18.83,0,0,1,23.56,0l48.13,40.84a18.84,18.84,0,0,0,23.57,0l48.13-40.84a18.83,18.83,0,0,1,23.56,0l48.13,40.84a18.84,18.84,0,0,0,23.57,0l50.56-42.9"/><path class="cls-2" d="M135.5,287.78l58.88,50a18.83,18.83,0,0,0,23.56,0l52.29-44.37a18.83,18.83,0,0,1,23.56,0L343,335.1a18.83,18.83,0,0,0,23.56,0l48.14-40.85a18.83,18.83,0,0,1,23.56,0l48.13,40.85a18.84,18.84,0,0,0,23.57,0l48.13-40.85a18.83,18.83,0,0,1,23.56,0l48.13,40.85a18.84,18.84,0,0,0,23.57,0l50.56-42.91"/><path class="cls-2" d="M135.5,296.78l58.88,50a18.83,18.83,0,0,0,23.56,0l52.29-44.37a18.83,18.83,0,0,1,23.56,0L343,344.09a18.83,18.83,0,0,0,23.56,0l48.14-40.84a18.83,18.83,0,0,1,23.56,0l48.13,40.84a18.84,18.84,0,0,0,23.57,0l48.13-40.84a18.83,18.83,0,0,1,23.56,0l48.13,40.84a18.84,18.84,0,0,0,23.57,0l50.56-42.9"/><path class="cls-2" d="M135.5,305.77l58.88,50a18.83,18.83,0,0,0,23.56,0l52.29-44.37a18.83,18.83,0,0,1,23.56,0L343,353.08a18.83,18.83,0,0,0,23.56,0l48.14-40.84a18.83,18.83,0,0,1,23.56,0l48.13,40.84a18.84,18.84,0,0,0,23.57,0l48.13-40.84a18.83,18.83,0,0,1,23.56,0l48.13,40.84a18.84,18.84,0,0,0,23.57,0l50.56-42.9"/><path class="cls-2" d="M135.5,314.76l58.88,50a18.83,18.83,0,0,0,23.56,0l52.29-44.37a18.83,18.83,0,0,1,23.56,0L343,362.07a18.8,18.8,0,0,0,23.56,0l48.14-40.84a18.83,18.83,0,0,1,23.56,0l48.13,40.84a18.82,18.82,0,0,0,23.57,0l48.13-40.84a18.83,18.83,0,0,1,23.56,0l48.13,40.84a18.82,18.82,0,0,0,23.57,0l50.56-42.9"/><path class="cls-2" d="M135.5,323.76l58.88,49.95a18.83,18.83,0,0,0,23.56,0l52.29-44.37a18.83,18.83,0,0,1,23.56,0L343,371.07a18.83,18.83,0,0,0,23.56,0l48.14-40.84a18.8,18.8,0,0,1,23.56,0l48.13,40.84a18.84,18.84,0,0,0,23.57,0l48.13-40.84a18.8,18.8,0,0,1,23.56,0l48.13,40.84a18.84,18.84,0,0,0,23.57,0l50.56-42.91"/><path class="cls-2" d="M135.5,332.75l58.88,50a18.83,18.83,0,0,0,23.56,0l52.29-44.37a18.83,18.83,0,0,1,23.56,0L343,380.06a18.83,18.83,0,0,0,23.56,0l48.14-40.84a18.83,18.83,0,0,1,23.56,0l48.13,40.84a18.84,18.84,0,0,0,23.57,0l48.13-40.84a18.83,18.83,0,0,1,23.56,0l48.13,40.84a18.84,18.84,0,0,0,23.57,0l50.56-42.9"/><path class="cls-2" d="M135.5,341.74l58.88,50a18.83,18.83,0,0,0,23.56,0l52.29-44.37a18.83,18.83,0,0,1,23.56,0L343,389.05a18.83,18.83,0,0,0,23.56,0l48.14-40.84a18.83,18.83,0,0,1,23.56,0l48.13,40.84a18.84,18.84,0,0,0,23.57,0l48.13-40.84a18.83,18.83,0,0,1,23.56,0l48.13,40.84a18.84,18.84,0,0,0,23.57,0l50.56-42.9"/><path class="cls-2" d="M135.5,350.73l58.88,50a18.83,18.83,0,0,0,23.56,0l52.29-44.37a18.83,18.83,0,0,1,23.56,0L343,398.05a18.83,18.83,0,0,0,23.56,0l48.14-40.85a18.83,18.83,0,0,1,23.56,0l48.13,40.85a18.84,18.84,0,0,0,23.57,0l48.13-40.85a18.83,18.83,0,0,1,23.56,0l48.13,40.85a18.84,18.84,0,0,0,23.57,0l50.56-42.91"/><path class="cls-2" d="M135.5,359.73l58.88,50a18.83,18.83,0,0,0,23.56,0l52.29-44.37a18.83,18.83,0,0,1,23.56,0L343,407a18.83,18.83,0,0,0,23.56,0l48.14-40.84a18.83,18.83,0,0,1,23.56,0L486.35,407a18.84,18.84,0,0,0,23.57,0l48.13-40.84a18.83,18.83,0,0,1,23.56,0L629.74,407a18.84,18.84,0,0,0,23.57,0l50.56-42.9"/><path class="cls-2" d="M135.5,368.72l58.88,50a18.83,18.83,0,0,0,23.56,0l52.29-44.37a18.83,18.83,0,0,1,23.56,0L343,416a18.83,18.83,0,0,0,23.56,0l48.14-40.84a18.83,18.83,0,0,1,23.56,0L486.35,416a18.84,18.84,0,0,0,23.57,0l48.13-40.84a18.83,18.83,0,0,1,23.56,0L629.74,416a18.84,18.84,0,0,0,23.57,0l50.56-42.9"/><path class="cls-2" d="M135.5,377.71l58.88,50a18.83,18.83,0,0,0,23.56,0l52.29-44.37a18.83,18.83,0,0,1,23.56,0L343,425a18.83,18.83,0,0,0,23.56,0l48.14-40.85a18.83,18.83,0,0,1,23.56,0L486.35,425a18.84,18.84,0,0,0,23.57,0l48.13-40.85a18.83,18.83,0,0,1,23.56,0L629.74,425a18.84,18.84,0,0,0,23.57,0l50.56-42.91"/><path class="cls-2" d="M135.5,386.71l58.88,50a18.83,18.83,0,0,0,23.56,0l52.29-44.37a18.83,18.83,0,0,1,23.56,0L343,434a18.83,18.83,0,0,0,23.56,0l48.14-40.84a18.83,18.83,0,0,1,23.56,0L486.35,434a18.84,18.84,0,0,0,23.57,0l48.13-40.84a18.83,18.83,0,0,1,23.56,0L629.74,434a18.84,18.84,0,0,0,23.57,0l50.56-42.9"/><path class="cls-2" d="M135.5,395.7l58.88,50a18.83,18.83,0,0,0,23.56,0l52.29-44.37a18.83,18.83,0,0,1,23.56,0L343,443a18.83,18.83,0,0,0,23.56,0l48.14-40.84a18.83,18.83,0,0,1,23.56,0L486.35,443a18.84,18.84,0,0,0,23.57,0l48.13-40.84a18.83,18.83,0,0,1,23.56,0L629.74,443a18.84,18.84,0,0,0,23.57,0l50.56-42.9"/><path class="cls-2" d="M135.5,404.69l58.88,50a18.83,18.83,0,0,0,23.56,0l52.29-44.37a18.83,18.83,0,0,1,23.56,0L343,452a18.83,18.83,0,0,0,23.56,0l48.14-40.85a18.83,18.83,0,0,1,23.56,0L486.35,452a18.84,18.84,0,0,0,23.57,0l48.13-40.85a18.83,18.83,0,0,1,23.56,0L629.74,452a18.84,18.84,0,0,0,23.57,0l50.56-42.91"/><path class="cls-2" d="M135.5,413.69l58.88,49.95a18.83,18.83,0,0,0,23.56,0l52.29-44.37a18.83,18.83,0,0,1,23.56,0L343,461a18.83,18.83,0,0,0,23.56,0l48.14-40.84a18.8,18.8,0,0,1,23.56,0L486.35,461a18.84,18.84,0,0,0,23.57,0l48.13-40.84a18.8,18.8,0,0,1,23.56,0L629.74,461a18.84,18.84,0,0,0,23.57,0l50.56-42.91"/><path class="cls-2" d="M135.5,422.68l58.88,50a18.83,18.83,0,0,0,23.56,0l52.29-44.37a18.83,18.83,0,0,1,23.56,0L343,470a18.83,18.83,0,0,0,23.56,0l48.14-40.84a18.83,18.83,0,0,1,23.56,0L486.35,470a18.84,18.84,0,0,0,23.57,0l48.13-40.84a18.83,18.83,0,0,1,23.56,0L629.74,470a18.84,18.84,0,0,0,23.57,0l50.56-42.9"/><path class="cls-2" d="M135.5,431.67l58.88,50a18.83,18.83,0,0,0,23.56,0l52.29-44.37a18.83,18.83,0,0,1,23.56,0L343,479a18.8,18.8,0,0,0,23.56,0l48.14-40.84a18.83,18.83,0,0,1,23.56,0L486.35,479a18.82,18.82,0,0,0,23.57,0l48.13-40.84a18.83,18.83,0,0,1,23.56,0L629.74,479a18.82,18.82,0,0,0,23.57,0l50.56-42.9"/><path class="cls-2" d="M135.5,440.67l58.88,49.95a18.83,18.83,0,0,0,23.56,0l52.29-44.37a18.83,18.83,0,0,1,23.56,0L343,488a18.83,18.83,0,0,0,23.56,0l48.14-40.85a18.83,18.83,0,0,1,23.56,0L486.35,488a18.84,18.84,0,0,0,23.57,0l48.13-40.85a18.83,18.83,0,0,1,23.56,0L629.74,488a18.84,18.84,0,0,0,23.57,0l50.56-42.91"/><path class="cls-2" d="M135.5,449.66l58.88,50a18.83,18.83,0,0,0,23.56,0l52.29-44.37a18.83,18.83,0,0,1,23.56,0L343,497a18.83,18.83,0,0,0,23.56,0l48.14-40.84a18.83,18.83,0,0,1,23.56,0L486.35,497a18.84,18.84,0,0,0,23.57,0l48.13-40.84a18.83,18.83,0,0,1,23.56,0L629.74,497a18.84,18.84,0,0,0,23.57,0l50.56-42.9"/><path class="cls-2" d="M135.5,458.65l58.88,50a18.83,18.83,0,0,0,23.56,0l52.29-44.37a18.83,18.83,0,0,1,23.56,0L343,506a18.83,18.83,0,0,0,23.56,0l48.14-40.84a18.83,18.83,0,0,1,23.56,0L486.35,506a18.84,18.84,0,0,0,23.57,0l48.13-40.84a18.83,18.83,0,0,1,23.56,0L629.74,506a18.84,18.84,0,0,0,23.57,0l50.56-42.9"/><path class="cls-2" d="M135.5,467.64l58.88,50a18.83,18.83,0,0,0,23.56,0l52.29-44.37a18.83,18.83,0,0,1,23.56,0L343,515a18.83,18.83,0,0,0,23.56,0l48.14-40.85a18.83,18.83,0,0,1,23.56,0L486.35,515a18.84,18.84,0,0,0,23.57,0l48.13-40.85a18.83,18.83,0,0,1,23.56,0L629.74,515a18.84,18.84,0,0,0,23.57,0l50.56-42.91"/><path class="cls-2" d="M135.5,476.64l58.88,50a18.8,18.8,0,0,0,23.56,0l52.29-44.36a18.8,18.8,0,0,1,23.56,0L343,524a18.83,18.83,0,0,0,23.56,0l48.14-40.84a18.83,18.83,0,0,1,23.56,0L486.35,524a18.84,18.84,0,0,0,23.57,0l48.13-40.84a18.83,18.83,0,0,1,23.56,0L629.74,524a18.84,18.84,0,0,0,23.57,0l50.56-42.9"/><path class="cls-2" d="M135.5,485.63l58.88,50a18.83,18.83,0,0,0,23.56,0l52.29-44.37a18.83,18.83,0,0,1,23.56,0L343,532.94a18.83,18.83,0,0,0,23.56,0l48.14-40.84a18.83,18.83,0,0,1,23.56,0l48.13,40.84a18.84,18.84,0,0,0,23.57,0l48.13-40.84a18.83,18.83,0,0,1,23.56,0l48.13,40.84a18.84,18.84,0,0,0,23.57,0L703.87,490"/><path class="cls-2" d="M135.5,494.62l58.88,50a18.83,18.83,0,0,0,23.56,0l52.29-44.37a18.83,18.83,0,0,1,23.56,0L343,541.94a18.83,18.83,0,0,0,23.56,0l48.14-40.85a18.83,18.83,0,0,1,23.56,0l48.13,40.85a18.84,18.84,0,0,0,23.57,0l48.13-40.85a18.83,18.83,0,0,1,23.56,0l48.13,40.85a18.84,18.84,0,0,0,23.57,0L703.87,499"/><path class="cls-2" d="M135.5,503.62l58.88,50a18.83,18.83,0,0,0,23.56,0l52.29-44.37a18.83,18.83,0,0,1,23.56,0L343,550.93a18.83,18.83,0,0,0,23.56,0l48.14-40.84a18.83,18.83,0,0,1,23.56,0l48.13,40.84a18.84,18.84,0,0,0,23.57,0l48.13-40.84a18.83,18.83,0,0,1,23.56,0l48.13,40.84a18.84,18.84,0,0,0,23.57,0L703.87,508"/><path class="cls-2" d="M135.5,512.61l58.88,50a18.83,18.83,0,0,0,23.56,0l52.29-44.37a18.83,18.83,0,0,1,23.56,0L343,559.92a18.83,18.83,0,0,0,23.56,0l48.14-40.84a18.83,18.83,0,0,1,23.56,0l48.13,40.84a18.84,18.84,0,0,0,23.57,0l48.13-40.84a18.83,18.83,0,0,1,23.56,0l48.13,40.84a18.84,18.84,0,0,0,23.57,0L703.87,517"/><path class="cls-2" d="M135.5,521.6l58.88,50a18.83,18.83,0,0,0,23.56,0l52.29-44.37a18.83,18.83,0,0,1,23.56,0L343,568.91a18.8,18.8,0,0,0,23.56,0l48.14-40.84a18.83,18.83,0,0,1,23.56,0l48.13,40.84a18.82,18.82,0,0,0,23.57,0l48.13-40.84a18.83,18.83,0,0,1,23.56,0l48.13,40.84a18.82,18.82,0,0,0,23.57,0L703.87,526"/><path class="cls-2" d="M135.5,530.6l58.88,49.95a18.83,18.83,0,0,0,23.56,0l52.29-44.37a18.83,18.83,0,0,1,23.56,0L343,577.91a18.83,18.83,0,0,0,23.56,0l48.14-40.84a18.8,18.8,0,0,1,23.56,0l48.13,40.84a18.84,18.84,0,0,0,23.57,0l48.13-40.84a18.8,18.8,0,0,1,23.56,0l48.13,40.84a18.84,18.84,0,0,0,23.57,0L703.87,535"/><path class="cls-2" d="M135.5,539.59l58.88,50a18.83,18.83,0,0,0,23.56,0l52.29-44.37a18.83,18.83,0,0,1,23.56,0L343,586.9a18.83,18.83,0,0,0,23.56,0l48.14-40.84a18.83,18.83,0,0,1,23.56,0l48.13,40.84a18.84,18.84,0,0,0,23.57,0l48.13-40.84a18.83,18.83,0,0,1,23.56,0l48.13,40.84a18.84,18.84,0,0,0,23.57,0L703.87,544"/><path class="cls-2" d="M135.5,548.58l58.88,50a18.83,18.83,0,0,0,23.56,0l52.29-44.37a18.83,18.83,0,0,1,23.56,0L343,595.89a18.83,18.83,0,0,0,23.56,0l48.14-40.84a18.83,18.83,0,0,1,23.56,0l48.13,40.84a18.84,18.84,0,0,0,23.57,0l48.13-40.84a18.83,18.83,0,0,1,23.56,0l48.13,40.84a18.84,18.84,0,0,0,23.57,0L703.87,553"/></g><path class="cls-2" d="M6.34,317.27l72.21,61.28c8,6.77,20.92,6.77,28.9,0l64.14-54.43c8-6.77,20.92-6.77,28.9,0l60.32,51.18c8,6.77,20.92,6.77,28.9,0l59-50.1c8-6.77,20.92-6.77,28.9,0l59,50.1c8,6.77,20.92,6.77,28.9,0l59.05-50.1c8-6.77,20.92-6.77,28.9,0l59,50.1c8,6.77,20.92,6.77,28.9,0l62-52.62"/></svg>